<?xml version="1.0" encoding="utf-8"?>
<!-- Generator: Adobe Illustrator 23.0.3, SVG Export Plug-In . SVG Version: 6.00 Build 0)  -->
<svg version="1.1" id="Layer_1" xmlns="http://www.w3.org/2000/svg" xmlns:xlink="http://www.w3.org/1999/xlink" x="0px" y="0px"
	 viewBox="0 0 100 100" style="enable-background:new 0 0 100 100;" xml:space="preserve">
<style type="text/css">
	.st0{fill:#B5CEA8;}
</style>
<g>
	<path class="st0" d="M25.6342,50.0005c2.2014,1.6739,3.6988,3.2592,4.4915,4.7557c1.0125,1.9815,1.5192,4.3377,1.5192,7.0674
		v23.7123c0,2.5099,0.7266,4.5664,2.1797,6.1753c1.4531,1.6069,3.2582,2.5198,5.4162,2.7406
		c1.3644,0.1321,2.2674,0.3963,2.7081,0.7926c0.5718,0.5284,0.8587,1.1889,0.8587,1.9815c0,0.836-0.2869,1.5083-0.8587,2.015
		C41.376,99.7457,40.539,100,39.4388,100c-3.479,0-6.3852-1.1002-8.7187-3.3025c-3.1271-3.0383-4.6896-6.7372-4.6896-11.0965
		V61.8236c0-2.4212-0.7266-4.4589-2.1797-6.1102c-1.4531-1.6513-3.3025-2.5642-5.5483-2.7406
		c-1.2333-0.1321-2.0919-0.4397-2.576-0.9247C15.2415,51.564,15,50.8818,15,50.0005c0-0.836,0.2415-1.4965,0.7266-1.9815
		c0.484-0.484,1.3427-0.7926,2.576-0.9247c2.2891-0.1755,4.1499-1.0898,5.5813-2.7411c1.4304-1.6513,2.1467-3.6875,2.1467-6.1097
		V14.4651c0-4.1385,1.321-7.5845,3.9631-10.337C32.6356,1.3767,35.806,0,39.5049,0c1.0568,0,1.8711,0.2642,2.4439,0.7926
		c0.5718,0.5284,0.8587,1.1889,0.8587,1.9815s-0.2869,1.4531-0.8587,1.9815c-0.3963,0.4407-1.2993,0.7266-2.7081,0.8587
		c-2.2024,0.2208-4.0187,1.1455-5.4492,2.7741c-1.4314,1.6296-2.1467,3.6555-2.1467,6.0767v23.7783
		c0,2.7741-0.4407,5.0095-1.321,6.7042C29.4425,46.6432,27.8799,48.3275,25.6342,50.0005z"/>
</g>
<path class="st0" d="M84.4385,52.4711c0.7483-1.5431,0.7487-3.3439,0.0011-4.8873L62.5384,2.3666
	C62.0522,1.3872,61.6128,0.76,61.22,0.485c-0.608-0.4257-1.2909-0.5707-2.0498-0.4369c-0.7603,0.1341-1.3523,0.5046-1.7775,1.1117
	c-0.6257,0.8935-0.5691,2.105,0.171,3.6342l21.56,44.3477c0.2728,0.5611,0.2726,1.2165-0.0005,1.7774l-21.5599,44.286
	c-0.7396,1.53-0.7961,2.7415-0.171,3.6342c0.4257,0.608,1.018,0.9789,1.7777,1.1121c0.7595,0.1346,1.4416-0.0116,2.0495-0.4373
	c0.3928-0.275,0.8322-0.9022,1.3184-1.8816L84.4385,52.4711z"/>
</svg>
